<?xml version="1.0" encoding="UTF-8"?><svg id="Web" xmlns="http://www.w3.org/2000/svg" viewBox="0 0 96 96"><defs><style>.cls-1{fill:#48086f;}.cls-2{fill:#327fef;}.cls-3{opacity:.2;}.cls-4{fill:#1d418e;}.cls-5{fill:#3adcc9;}.cls-6{fill:#007d61;}.cls-7{fill:#7f35b2;}.cls-8{opacity:.25;}.cls-9{opacity:.3;}</style></defs><g><rect class="cls-7" x="48" y="48" width="48" height="48"/><rect class="cls-2" y="48" width="48" height="48"/><rect class="cls-5" x="48" width="48" height="48"/></g><g><g class="cls-9"><path class="cls-1" d="M48,86.16c16.07-2.79,32.07-5.69,48-8.7v-3.03c-15.91,3.01-31.92,5.9-48,8.7v3.04Z"/><path class="cls-1" d="M79.15,96c5.63-1.03,11.24-2.06,16.85-3.12v-3.03c-11.21,2.1-22.46,4.15-33.75,6.14h16.9Z"/><path class="cls-1" d="M48,70.81c16.07-2.82,32.07-5.74,48-8.78v-3.04c-15.91,3.03-31.92,5.95-48,8.77v3.04Z"/><path class="cls-1" d="M48,55.46c13.59-2.4,27.13-4.9,40.62-7.46h-16.14c-8.13,1.5-16.29,2.97-24.47,4.42v3.04Z"/></g><g class="cls-8"><path class="cls-4" d="M48,86.16v-3.04c-13.86,2.41-27.78,4.75-41.77,6.99-2.08,.33-4.15,.66-6.23,.99v3.04c2.24-.36,4.47-.7,6.71-1.06,13.82-2.22,27.58-4.53,41.29-6.92Z"/><path class="cls-4" d="M0,48v.3c.61-.1,1.23-.2,1.84-.3H0Z"/><path class="cls-4" d="M48,70.81v-3.04c-14.08,2.47-28.23,4.87-42.45,7.17-1.86,.3-3.7,.59-5.55,.89v3.04c2.01-.32,4.02-.64,6.03-.96,14.04-2.27,28.03-4.65,41.97-7.09Z"/><path class="cls-4" d="M48,55.46v-3.04c-14.31,2.53-28.68,4.98-43.13,7.34-1.63,.27-3.24,.52-4.87,.79v3.04c1.79-.29,3.56-.57,5.35-.86,14.27-2.33,28.48-4.76,42.65-7.26Z"/></g><g class="cls-3"><path class="cls-6" d="M48,40.1c16.07-2.86,32.07-5.84,48-8.92v-3.03c-15.91,3.08-31.91,6.05-48,8.91v3.04Z"/><path class="cls-6" d="M82.03,0c-11.3,2.17-22.64,4.29-34.03,6.35v3.04C64.07,6.48,80.07,3.45,96,.32v-.32h-13.97Z"/><path class="cls-6" d="M88.62,48c2.46-.47,4.93-.92,7.38-1.39v-3.03c-7.82,1.5-15.67,2.98-23.53,4.43h16.14Z"/><path class="cls-6" d="M48,24.75c16.07-2.89,32.07-5.89,48-8.99v-3.03c-15.92,3.1-31.91,6.1-48,8.99v3.03Z"/></g></g></svg>